<?xml version="1.0" encoding="UTF-8"?>
<!DOCTYPE svg PUBLIC "-//W3C//DTD SVG 1.1//EN" "http://www.w3.org/Graphics/SVG/1.1/DTD/svg11.dtd">
<!-- Creator: CorelDRAW (Nie do użytku komercyjnego) -->
<svg xmlns="http://www.w3.org/2000/svg" xml:space="preserve" width="4961px" height="3508px" version="1.1" style="shape-rendering:geometricPrecision; text-rendering:geometricPrecision; image-rendering:optimizeQuality; fill-rule:evenodd; clip-rule:evenodd"
viewBox="0 0 4961 3508.14"
 xmlns:xlink="http://www.w3.org/1999/xlink"
 xmlns:xodm="http://www.corel.com/coreldraw/odm/2003">
 <defs>
  <style type="text/css">
   <![CDATA[
    .fil1 {fill:#ffffff}
    .fil0 {fill:#E2A62D}
   ]]>
  </style>
 </defs>
 <g id="Logo_MLO">
  <metadata id="CorelCorpID_0Corel-Layer"/>
  <path class="fil0" d="M1329.28 502.56c341.28,-105.43 744.64,-169.6 1098.83,-175.02 18.2,-0.26 36.34,-0.42 54.42,-0.46l22.54 0c341.17,0.81 665.34,40.76 995.62,122.56 75.84,18.75 212.1,57.5 232.1,66.25 9.17,4.17 8.34,-1.67 18.34,104.59 11.49,125.84 17.48,262.74 17.99,399.8l0 38.66c-0.65,168.13 -9.56,334.96 -26.74,480.36 -54.59,465.45 -167.1,786.72 -370.45,1058.41 -189.59,252.52 -473.78,478.37 -816.72,647.97l-44.17 21.66 -64.17 -32.08c-242.52,-121.26 -454.21,-270.44 -624.63,-439.2 -367.53,-364.19 -532.13,-815.9 -567.55,-1558.87 -1.66,-34 -2.58,-80.41 -2.83,-131.9l0 -61.31c0.46,-101.18 3.11,-210.19 7.42,-279.74 5,-80 15.41,-209.18 19.16,-231.68l2.09 -15 48.75 -15z"/>
  <path class="fil1" d="M1779.73 512.14c156.26,-29.17 347.53,-52.5 510.87,-62.5 32.09,-1.67 146.68,-2.92 254.19,-2.09 235.85,1.67 369.19,11.67 575.04,44.17 155.85,24.59 367.11,71.26 483.37,107.09 24.17,7.5 25,7.92 27.92,24.59 7.08,42.5 15.83,272.93 15.83,421.28 -0.41,615.88 -100,1071.33 -305.44,1392.6 -107.5,167.93 -249.18,317.94 -431.28,455.45 -124.59,94.59 -380.86,245.44 -405.44,239.19 -11.67,-3.34 -127.51,-65.01 -178.77,-95.84 -168.76,-100.84 -297.1,-199.18 -425.45,-327.53 -132.51,-132.51 -218.34,-250.02 -297.1,-408.36 -147.51,-295.02 -222.93,-689.22 -230.43,-1200.51 -2.09,-164.17 0.83,-273.77 12.08,-420.03 2.5,-35 6.67,-66.25 9.17,-69.59 9.16,-12.08 243.76,-71.67 385.44,-97.92z"/>
  <path class="fil0" d="M2509.37 557.98l0 140.84 0 141.26 78.34 2.5c42.92,1.67 96.25,2.92 118.76,2.92l40.83 0 -1.25 52.92 -1.25 52.92 -177.09 -1.25c-97.51,-0.42 -178.35,-2.08 -180.02,-2.92 -4.16,-2.5 -4.58,-382.53 -0.41,-386.28 1.25,-1.66 29.58,-2.91 62.5,-2.91l59.59 0z"/>
  <path class="fil0" d="M2105.17 693.4c78.76,-127.92 77.51,-126.26 92.93,-128.34 7.5,-0.83 36.25,-2.08 64.58,-2.08l50.84 -0.84 0 193.35c0,106.68 -1.25,194.6 -2.91,195.43 -2.09,1.25 -29.59,2.5 -61.68,3.34l-58.33 1.66 -2.09 -101.25 -2.08 -101.26 -52.09 87.09 -52.09 87.5 -18.33 2.5c-10,1.25 -26.25,2.5 -36.25,2.5l-17.5 0 -49.17 -78.33c-26.67,-42.92 -52.51,-81.68 -56.68,-86.26 -7.5,-7.92 -7.5,-5.83 -5,98.34 2.51,82.09 1.67,107.51 -2.08,109.59 -5.42,3.33 -90.01,15 -109.59,15l-11.67 0 0 -195.85 0 -195.43 13.75 -2.5c30.42,-5 116.68,-14.17 119.6,-12.5 1.25,0.84 32.5,46.67 68.75,101.68 51.25,77.5 67.51,99.17 71.26,95.42 2.5,-2.92 27.91,-42.92 55.83,-88.76z"/>
  <path class="fil0" d="M2812.73 622.56c18.75,-24.58 57.08,-45.83 92.5,-51.67 32.5,-5 56.26,-5 122.93,-0.41 92.92,7.08 124.17,14.58 161.26,40.42 21.25,14.16 44.17,49.17 52.09,78.75 10,36.67 10,135.43 -0.42,175.85 -13.33,52.5 -46.25,89.59 -90.84,102.92 -37.09,10.84 -199.6,5.42 -254.6,-8.33 -48.76,-12.5 -86.68,-45 -102.93,-89.17 -13.33,-34.17 -18.33,-92.09 -13.33,-143.35 5.83,-54.17 13.33,-79.17 33.34,-105.01z"/>
  <path class="fil0" d="M1551.8 1143.02c280.44,-62.09 557.12,-95.42 861.73,-103.34 68.75,-1.67 246.27,1.25 345.86,6.25 171.26,7.92 359.61,30.42 560.46,66.25 55.42,10.01 235.43,49.59 241.26,52.93 8.75,5.41 -6.66,254.6 -24.58,401.27 -45,362.53 -129.59,622.55 -275.85,849.23 -144.6,224.6 -407.53,450.87 -707.97,609.22l-42.09 22.08 -49.59 -26.25c-312.52,-166.26 -577.12,-400.45 -722.55,-639.22 -147.93,-243.35 -228.35,-528.37 -268.77,-952.57 -8.75,-93.34 -13.34,-260.43 -7.08,-264.18 2.91,-1.67 42.92,-11.25 89.17,-21.67z"/>
  <path class="fil1" d="M2896.07 705.9c5.83,-20.41 24.16,-39.17 43.33,-44.17 15.84,-3.75 107.93,-0.41 138.35,5 46.67,8.76 58.75,31.26 58.75,107.93 0,40 -1.67,56.25 -7.5,70.84 -11.67,29.58 -22.5,35 -72.51,36.67 -51.25,2.08 -109.59,-4.59 -130.01,-14.59 -10.41,-5.41 -17.91,-13.75 -25.41,-28.33 -9.17,-18.75 -10.42,-25.84 -10.01,-68.76 0,-26.25 2.09,-55.42 5.01,-64.59z"/>
  <path class="fil1" d="M2401.45 1334.7c7.5,-8.33 20,-17.5 26.66,-20.83 7.09,-2.92 19.17,-5.42 27.51,-5.84 35.83,-0.41 189.59,9.17 192.51,12.09 4.58,4.58 -19.58,35.42 -35.84,45.83 -13.75,8.34 -14.58,10.42 -12.5,24.59 1.67,13.33 19.17,86.26 37.09,154.59l5.83 22.92 -52.92 95.84c-29.17,52.92 -57.5,105.01 -63.34,115.84 -6.25,10.84 -12.91,20.01 -15.83,20.01 -2.5,0 -22.5,-32.51 -44.17,-72.09 -95.01,-173.35 -89.17,-156.68 -72.09,-211.27 17.5,-54.59 12.5,-82.09 -16.67,-91.67 -16.66,-5.42 -45.83,-0.42 -63.75,11.25 -14.59,9.58 -19.17,2.08 -13.34,-22.92 2.92,-11.25 8.75,-26.25 12.92,-33.34 10,-16.25 36.26,-30 57.51,-30 12.91,0 18.75,-2.91 30.42,-15z"/>
  <path class="fil1" d="M1602.64 1324.7c0.83,0 59.58,20 130.42,44.17 70.42,24.17 142.93,48.75 160.43,54.59 32.09,10.42 32.09,10.42 58.76,46.67 95.84,129.59 152.92,210.43 150.01,213.35 -2.09,2.08 -28.76,-5.84 -59.59,-17.09 -30.84,-11.25 -117.93,-42.08 -193.35,-68.34 -75.42,-26.67 -145.43,-52.92 -155.01,-58.75 -49.59,-29.17 -93.34,-118.34 -93.34,-190.43 0,-13.34 0.83,-24.17 1.67,-24.17z"/>
  <path class="fil1" d="M3094.41 1437.63c3.34,-2.92 75.84,-29.17 161.68,-58.34 85.42,-29.59 157.51,-53.34 159.6,-52.51 7.08,1.25 7.08,30.84 0,66.26 -14.59,72.09 -58.76,136.68 -106.68,155.84 -12.5,5 -78.75,28.76 -147.51,52.92 -68.75,24.59 -150.43,53.34 -181.26,64.59 -30.84,11.25 -57.92,18.75 -60.01,16.67 -2.08,-2.08 0.84,-9.58 6.25,-17.5 35.84,-51.67 162.93,-224.18 167.93,-227.93z"/>
  <path class="fil1" d="M2016.42 1458.04c9.16,0 228.35,74.18 247.51,83.76 40.42,20 60.01,43.75 103.35,124.59 106.25,196.68 138.76,256.69 141.67,259.19 1.67,2.08 24.17,-36.67 50.42,-85.43 127.1,-236.68 132.51,-245.85 155.85,-267.93 30.42,-28.75 49.17,-37.09 171.26,-77.09 123.34,-40.42 125.43,-40.84 121.68,-31.25 -2.92,6.66 -62.93,90.42 -128.76,178.76l-37.09 49.59 56.67 218.35c30.84,120.42 56.26,222.51 56.26,227.1 0,7.5 -3.34,7.91 -83.34,7.91 -75.01,0 -83.34,-0.83 -86.68,-7.5 -2.08,-3.75 -16.67,-58.75 -32.08,-121.67 -15.42,-62.92 -29.17,-115.84 -30.84,-117.09 -1.25,-1.67 -48.34,80.42 -104.59,182.09 -56.25,101.68 -104.17,185.02 -107.09,185.02 -2.92,0 -7.5,-4.17 -10,-9.59 -2.5,-5 -49.17,-88.75 -102.92,-185.85l-98.35 -176.68 -31.67 124.6 -31.25 124.59 -82.92 1.25c-45.84,0.42 -85.01,-0.83 -86.67,-2.5 -2.09,-2.08 5,-37.09 16.67,-82.51 11.25,-43.33 31.25,-120 44.58,-170.43 12.92,-50.42 29.59,-115.42 37.09,-144.17l13.75 -52.51 -82.51 -112.09c-45.42,-61.67 -82.92,-114.59 -82.92,-117.51 0,-2.5 1.25,-5 2.92,-5z"/>
  <path class="fil1" d="M2922.32 1739.73c1.25,-1.25 90,-32.92 197.93,-70.84 107.51,-37.5 197.1,-66.67 198.76,-65 6.25,5.41 -12.5,69.17 -28.75,100.42 -18.33,34.59 -51.25,69.59 -77.92,82.51 -17.5,8.33 -212.93,51.67 -248.77,55.42 -14.17,1.25 -14.59,0.83 -21.25,-19.59 -11.25,-35 -22.5,-80.83 -20,-82.92z"/>
  <path class="fil1" d="M1706.39 1603.89c6.25,0 390.45,131.67 393.78,135.01 2.09,2.5 -23.75,99.59 -27.5,103.34 -4.17,4.17 -242.93,-44.59 -260.02,-53.34 -23.33,-12.08 -45.42,-31.67 -64.17,-56.67 -19.58,-26.67 -42.09,-80.42 -46.25,-109.59 -2.09,-15.42 -1.25,-18.75 4.16,-18.75z"/>
  <path class="fil1" d="M1836.4 1847.24c4.59,1.25 56.26,12.08 114.59,23.75 58.34,12.08 107.1,22.5 108.35,23.33 4.16,3.34 -26.25,114.6 -32.09,116.68 -9.17,3.75 -71.25,-14.58 -97.92,-28.75 -32.09,-17.09 -54.59,-37.09 -74.18,-65.84 -17.91,-26.67 -34.58,-64.17 -30,-68.34 1.25,-1.66 6.67,-2.08 11.25,-0.83z"/>
  <path class="fil1" d="M3021.91 1881.41c30.83,-6.25 80.84,-16.67 110.42,-22.92 30.01,-6.67 56.67,-12.5 60.01,-12.5 8.75,-0.42 2.5,22.08 -14.59,52.5 -29.58,52.92 -74.59,86.26 -141.26,105.43 -47.92,13.75 -44.58,16.66 -61.67,-48.76 -8.33,-31.67 -13.75,-58.33 -12.08,-60 1.66,-1.25 28.33,-7.5 59.17,-13.75z"/>
  <path class="fil1" d="M2348.94 2099.76c3.75,0 52.09,85.42 55.42,98.34 0.84,2.5 -16.67,61.67 -38.75,131.26 -56.67,180.01 -60.42,191.26 -65.42,191.26 -7.5,0 -111.68,-70.42 -114.18,-77.09 -2.5,-5.41 15,-43.33 117.51,-257.1 22.5,-47.92 43.34,-86.67 45.42,-86.67z"/>
  <path class="fil1" d="M2672.3 2099.76c2.08,0 10.42,13.75 17.92,30 7.91,16.67 44.17,92.92 81.25,169.59 36.67,76.68 67.09,140.43 67.09,142.1 0,3.33 -54.17,42.09 -90.84,64.59 -15.83,9.58 -27.5,14.58 -30,12.08 -3.34,-3.33 -96.67,-295.02 -100.84,-314.61 -0.83,-3.33 10.42,-28.33 25,-55 14.58,-26.67 28.33,-48.75 30.42,-48.75z"/>
  <path class="fil1" d="M2572.71 2276.02c5.83,-7.08 10,-3.75 13.33,10 1.67,6.67 19.59,67.09 40.42,134.59 20.42,67.93 37.09,126.68 37.09,131.26 0,8.75 -51.67,42.92 -121.68,81.26l-32.5 17.5 -23.75 -13.75c-30.84,-17.08 -130.43,-79.17 -130.43,-80.84 0,-4.58 83.34,-278.35 85.01,-280.44 4.58,-4.16 10,4.17 38.33,57.51 15.01,28.75 29.17,53.75 30.84,55.83 2.08,2.09 15.83,-21.25 31.25,-52.08 15.42,-30.84 30,-58.34 32.09,-60.84z"/>
 </g>
</svg>
