<svg xmlns="http://www.w3.org/2000/svg" width="100%" height="100%" viewBox="0 0 1320 1120">
  <defs>
      <symbol id="eagle-gold" viewBox="1456 1197 2108 1560">
    <path d="M2401.45 1334.7c7.5,-8.33 20,-17.5 26.66,-20.83 7.09,-2.92 19.17,-5.42 27.51,-5.84 35.83,-0.41 189.59,9.17 192.51,12.09 4.58,4.58 -19.58,35.42 -35.84,45.83 -13.75,8.34 -14.58,10.42 -12.5,24.59 1.67,13.33 19.17,86.26 37.09,154.59l5.83 22.92 -52.92 95.84c-29.17,52.92 -57.5,105.01 -63.34,115.84 -6.25,10.84 -12.91,20.01 -15.83,20.01 -2.5,0 -22.5,-32.51 -44.17,-72.09 -95.01,-173.35 -89.17,-156.68 -72.09,-211.27 17.5,-54.59 12.5,-82.09 -16.67,-91.67 -16.66,-5.42 -45.83,-0.42 -63.75,11.25 -14.59,9.58 -19.17,2.08 -13.34,-22.92 2.92,-11.25 8.75,-26.25 12.92,-33.34 10,-16.25 36.26,-30 57.51,-30 12.91,0 18.75,-2.91 30.42,-15z" fill="#E2A62D"/>
<path d="M1602.64 1324.7c0.83,0 59.58,20 130.42,44.17 70.42,24.17 142.93,48.75 160.43,54.59 32.09,10.42 32.09,10.42 58.76,46.67 95.84,129.59 152.92,210.43 150.01,213.35 -2.09,2.08 -28.76,-5.84 -59.59,-17.09 -30.84,-11.25 -117.93,-42.08 -193.35,-68.34 -75.42,-26.67 -145.43,-52.92 -155.01,-58.75 -49.59,-29.17 -93.34,-118.34 -93.34,-190.43 0,-13.34 0.83,-24.17 1.67,-24.17z" fill="#E2A62D"/>
<path d="M3094.41 1437.63c3.34,-2.92 75.84,-29.17 161.68,-58.34 85.42,-29.59 157.51,-53.34 159.6,-52.51 7.08,1.25 7.08,30.84 0,66.26 -14.59,72.09 -58.76,136.68 -106.68,155.84 -12.5,5 -78.75,28.76 -147.51,52.92 -68.75,24.59 -150.43,53.34 -181.26,64.59 -30.84,11.25 -57.92,18.75 -60.01,16.67 -2.08,-2.08 0.84,-9.58 6.25,-17.5 35.84,-51.67 162.93,-224.18 167.93,-227.93z" fill="#E2A62D"/>
<path d="M2016.42 1458.04c9.16,0 228.35,74.18 247.51,83.76 40.42,20 60.01,43.75 103.35,124.59 106.25,196.68 138.76,256.69 141.67,259.19 1.67,2.08 24.17,-36.67 50.42,-85.43 127.1,-236.68 132.51,-245.85 155.85,-267.93 30.42,-28.75 49.17,-37.09 171.26,-77.09 123.34,-40.42 125.43,-40.84 121.68,-31.25 -2.92,6.66 -62.93,90.42 -128.76,178.76l-37.09 49.59 56.67 218.35c30.84,120.42 56.26,222.51 56.26,227.1 0,7.5 -3.34,7.91 -83.34,7.91 -75.01,0 -83.34,-0.83 -86.68,-7.5 -2.08,-3.75 -16.67,-58.75 -32.08,-121.67 -15.42,-62.92 -29.17,-115.84 -30.84,-117.09 -1.25,-1.67 -48.34,80.42 -104.59,182.09 -56.25,101.68 -104.17,185.02 -107.09,185.02 -2.92,0 -7.5,-4.17 -10,-9.59 -2.5,-5 -49.17,-88.75 -102.92,-185.85l-98.35 -176.68 -31.67 124.6 -31.25 124.59 -82.92 1.25c-45.84,0.42 -85.01,-0.83 -86.67,-2.5 -2.09,-2.08 5,-37.09 16.67,-82.51 11.25,-43.33 31.25,-120 44.58,-170.43 12.92,-50.42 29.59,-115.42 37.09,-144.17l13.75 -52.51 -82.51 -112.09c-45.42,-61.67 -82.92,-114.59 -82.92,-117.51 0,-2.5 1.25,-5 2.92,-5z" fill="#E2A62D"/>
<path d="M2922.32 1739.73c1.25,-1.25 90,-32.92 197.93,-70.84 107.51,-37.5 197.1,-66.67 198.76,-65 6.25,5.41 -12.5,69.17 -28.75,100.42 -18.33,34.59 -51.25,69.59 -77.92,82.51 -17.5,8.33 -212.93,51.67 -248.77,55.42 -14.17,1.25 -14.59,0.83 -21.25,-19.59 -11.25,-35 -22.5,-80.83 -20,-82.92z" fill="#E2A62D"/>
<path d="M1706.39 1603.89c6.25,0 390.45,131.67 393.78,135.01 2.09,2.5 -23.75,99.59 -27.5,103.34 -4.17,4.17 -242.93,-44.59 -260.02,-53.34 -23.33,-12.08 -45.42,-31.67 -64.17,-56.67 -19.58,-26.67 -42.09,-80.42 -46.25,-109.59 -2.09,-15.42 -1.25,-18.75 4.16,-18.75z" fill="#E2A62D"/>
<path d="M1836.4 1847.24c4.59,1.25 56.26,12.08 114.59,23.75 58.34,12.08 107.1,22.5 108.35,23.33 4.16,3.34 -26.25,114.6 -32.09,116.68 -9.17,3.75 -71.25,-14.58 -97.92,-28.75 -32.09,-17.09 -54.59,-37.09 -74.18,-65.84 -17.91,-26.67 -34.58,-64.17 -30,-68.34 1.25,-1.66 6.67,-2.08 11.25,-0.83z" fill="#E2A62D"/>
<path d="M3021.91 1881.41c30.83,-6.25 80.84,-16.67 110.42,-22.92 30.01,-6.67 56.67,-12.5 60.01,-12.5 8.75,-0.42 2.5,22.08 -14.59,52.5 -29.58,52.92 -74.59,86.26 -141.26,105.43 -47.92,13.75 -44.58,16.66 -61.67,-48.76 -8.33,-31.67 -13.75,-58.33 -12.08,-60 1.66,-1.25 28.33,-7.5 59.17,-13.75z" fill="#E2A62D"/>
<path d="M2348.94 2099.76c3.75,0 52.09,85.42 55.42,98.34 0.84,2.5 -16.67,61.67 -38.75,131.26 -56.67,180.01 -60.42,191.26 -65.42,191.26 -7.5,0 -111.68,-70.42 -114.18,-77.09 -2.5,-5.41 15,-43.33 117.51,-257.1 22.5,-47.92 43.34,-86.67 45.42,-86.67z" fill="#E2A62D"/>
<path d="M2672.3 2099.76c2.08,0 10.42,13.75 17.92,30 7.91,16.67 44.17,92.92 81.25,169.59 36.67,76.68 67.09,140.43 67.09,142.1 0,3.33 -54.17,42.09 -90.84,64.59 -15.83,9.58 -27.5,14.58 -30,12.08 -3.34,-3.33 -96.67,-295.02 -100.84,-314.61 -0.83,-3.33 10.42,-28.33 25,-55 14.58,-26.67 28.33,-48.75 30.42,-48.75z" fill="#E2A62D"/>
<path d="M2572.71 2276.02c5.83,-7.08 10,-3.75 13.33,10 1.67,6.67 19.59,67.09 40.42,134.59 20.42,67.93 37.09,126.68 37.09,131.26 0,8.75 -51.67,42.92 -121.68,81.26l-32.5 17.5 -23.75 -13.75c-30.84,-17.08 -130.43,-79.17 -130.43,-80.84 0,-4.58 83.34,-278.35 85.01,-280.44 4.58,-4.16 10,4.17 38.33,57.51 15.01,28.75 29.17,53.75 30.84,55.83 2.08,2.09 15.83,-21.25 31.25,-52.08 15.42,-30.84 30,-58.34 32.09,-60.84z" fill="#E2A62D"/>
  </symbol>
    <pattern id="mlo-pattern" patternUnits="userSpaceOnUse" width="132" height="112">
      <rect width="132" height="112" fill="#01214F"/>
            <use href="#eagle-gold" x="3.3" y="6.0" width="59.4" height="44.0"/>
      <use href="#eagle-gold" x="69.3" y="6.0" width="59.4" height="44.0"/>
      <use href="#eagle-gold" x="-29.7" y="62.0" width="59.4" height="44.0"/>
      <use href="#eagle-gold" x="36.3" y="62.0" width="59.4" height="44.0"/>
      <use href="#eagle-gold" x="102.3" y="62.0" width="59.4" height="44.0"/>
    </pattern>
  </defs>
  <rect width="100%" height="100%" fill="url(#mlo-pattern)"/>
</svg>